<?xml version="1.0" encoding="UTF-8"?>
<!-- Generator: visioncortex VTracer 0.6.3 -->
<svg version="1.1" xmlns="http://www.w3.org/2000/svg" width="1280" height="1280">
<path d="M0 0 C1.27 0 2.54 0 3.85 0 C4.92 -0 4.92 -0 6 -0 C8.42 -0.01 10.83 -0 13.24 0 C14.98 0 16.72 -0 18.46 -0 C23.28 -0 28.11 -0 32.94 0 C38.17 0.01 43.4 0 48.63 0 C57.82 -0 67.01 0 76.2 0.01 C89.86 0.01 103.52 0.01 117.18 0.01 C140.15 0.01 163.13 0.01 186.11 0.02 C208.87 0.02 231.63 0.03 254.4 0.03 C255.46 0.03 255.46 0.03 256.54 0.03 C262.99 0.03 269.44 0.03 275.89 0.03 C291.93 0.03 307.97 0.03 324.01 0.03 C324.74 0.03 325.48 0.03 326.23 0.03 C361.78 0.04 397.34 0.04 432.9 0.05 C445.24 0.05 457.58 0.05 469.92 0.06 C471.07 0.06 471.07 0.06 472.24 0.06 C507.8 0.06 543.36 0.07 578.92 0.07 C581.23 0.07 583.54 0.07 585.85 0.07 C601.14 0.07 616.43 0.07 631.73 0.07 C662.17 0.08 692.61 0.08 723.05 0.08 C724.5 0.08 725.95 0.08 727.4 0.08 C812 0.09 896.6 0.1 990.11 0.12 C991.51 0.12 991.51 0.12 992.93 0.12 C997.23 0.12 1001.53 0.12 1005.83 0.12 C1006.59 0.12 1007.34 0.12 1008.12 0.12 C1010.13 0.12 1012.13 0.12 1014.14 0.12 C1016.16 0.12 1018.17 0.12 1020.19 0.12 C1020.52 0.78 1020.85 1.44 1021.19 2.12 C1023.21 2.61 1025.23 3.1 1027.26 3.55 C1029.57 4.24 1030.68 5.27 1032.19 7.12 C1032.85 7.12 1033.51 7.12 1034.19 7.12 C1034.19 8.11 1034.19 9.1 1034.19 10.12 C1035.37 10.5 1035.37 10.5 1036.57 10.87 C1039.65 12.34 1039.86 13.11 1041.19 16.12 C1041.89 16.83 1042.6 17.53 1043.32 18.25 C1045.19 20.12 1045.19 20.12 1045.19 22.12 C1045.85 22.45 1046.51 22.78 1047.19 23.12 C1046.86 23.78 1046.53 24.44 1046.19 25.12 C1046.85 25.12 1047.51 25.12 1048.19 25.12 C1048.83 26.43 1049.45 27.75 1050.07 29.06 C1050.42 29.79 1050.76 30.52 1051.12 31.28 C1053.67 38.05 1054.49 44.69 1054.45 51.88 C1054.45 52.72 1054.45 53.56 1054.46 54.43 C1054.46 57.23 1054.46 60.04 1054.45 62.84 C1054.45 64.89 1054.46 66.93 1054.46 68.97 C1054.47 74.6 1054.47 80.23 1054.46 85.86 C1054.46 91.98 1054.47 98.1 1054.47 104.22 C1054.48 114.95 1054.49 125.68 1054.49 136.41 C1054.48 147.92 1054.49 159.44 1054.49 170.95 C1054.49 171.68 1054.49 172.4 1054.49 173.15 C1054.5 176.11 1054.5 179.08 1054.5 182.04 C1054.52 212.94 1054.53 243.84 1054.53 274.73 C1054.53 278.06 1054.53 281.39 1054.53 284.71 C1054.53 285.54 1054.53 286.36 1054.53 287.21 C1054.53 305.5 1054.53 323.79 1054.54 342.08 C1054.54 349.61 1054.54 357.14 1054.54 364.67 C1054.54 365.5 1054.54 366.33 1054.54 367.19 C1054.56 414.87 1054.57 462.55 1054.56 510.23 C1054.56 512.01 1054.56 513.79 1054.56 515.58 C1054.56 523.63 1054.56 531.69 1054.56 539.75 C1054.56 543.34 1054.56 546.93 1054.56 550.52 C1054.56 552.32 1054.56 554.12 1054.56 555.92 C1054.56 612.78 1054.58 669.64 1054.61 726.51 C1054.61 740.83 1054.62 755.16 1054.63 769.49 C1054.63 770.37 1054.63 771.25 1054.63 772.16 C1054.64 799.35 1054.65 826.54 1054.65 853.72 C1054.65 855 1054.65 855 1054.65 856.31 C1054.65 875.05 1054.65 893.78 1054.65 912.52 C1054.65 919.22 1054.65 925.93 1054.65 932.63 C1054.65 934.3 1054.65 935.97 1054.65 937.64 C1054.65 964.22 1054.66 990.79 1054.68 1017.37 C1054.7 1044.14 1054.7 1070.91 1054.69 1097.68 C1054.69 1101.38 1054.68 1105.08 1054.68 1108.78 C1054.68 1109.86 1054.68 1109.86 1054.68 1110.97 C1054.68 1122.45 1054.69 1133.93 1054.7 1145.41 C1054.71 1156.7 1054.71 1167.99 1054.7 1179.28 C1054.69 1185.32 1054.69 1191.36 1054.7 1197.4 C1054.72 1202.89 1054.72 1208.39 1054.7 1213.88 C1054.69 1215.86 1054.7 1217.83 1054.71 1219.8 C1054.76 1230.68 1054.3 1239.91 1050.19 1250.12 C1049.82 1251.06 1049.45 1252 1049.06 1252.97 C1048.78 1253.68 1048.49 1254.39 1048.19 1255.12 C1047.53 1255.12 1046.87 1255.12 1046.19 1255.12 C1046.12 1256.17 1046.12 1256.17 1046.05 1257.24 C1044.87 1261.21 1042.36 1263.47 1039.44 1266.25 C1038.65 1267.04 1038.65 1267.04 1037.85 1267.84 C1033.35 1272.24 1028.85 1275.01 1022.94 1277.25 C1019.82 1278.29 1019.82 1278.29 1017.19 1280.12 C1014.97 1280.22 1012.75 1280.25 1010.53 1280.25 C1009.82 1280.25 1009.11 1280.25 1008.38 1280.26 C1005.97 1280.26 1003.56 1280.26 1001.15 1280.25 C999.41 1280.25 997.67 1280.26 995.93 1280.26 C991.1 1280.26 986.27 1280.26 981.45 1280.26 C976.21 1280.26 970.98 1280.26 965.74 1280.27 C956.55 1280.27 947.37 1280.27 938.18 1280.27 C924.52 1280.27 910.85 1280.27 897.19 1280.28 C871.37 1280.29 845.56 1280.29 819.74 1280.29 C816.89 1280.29 814.04 1280.29 811.19 1280.29 C810.48 1280.29 809.78 1280.29 809.05 1280.29 C793.39 1280.29 777.74 1280.29 762.09 1280.3 C755.65 1280.3 749.21 1280.3 742.77 1280.3 C742.06 1280.3 741.34 1280.3 740.61 1280.3 C699.82 1280.31 659.03 1280.31 618.24 1280.31 C616.71 1280.31 615.19 1280.31 613.66 1280.31 C606.76 1280.31 599.87 1280.31 592.97 1280.31 C589.9 1280.31 586.82 1280.31 583.75 1280.31 C582.21 1280.31 580.67 1280.31 579.13 1280.31 C530.45 1280.31 481.76 1280.32 433.08 1280.33 C420.81 1280.33 408.55 1280.34 396.28 1280.34 C395.53 1280.34 394.77 1280.34 393.99 1280.34 C370.73 1280.35 347.46 1280.35 324.2 1280.35 C323.1 1280.35 323.1 1280.35 321.98 1280.35 C305.96 1280.35 289.94 1280.35 273.91 1280.35 C268.18 1280.35 262.44 1280.35 256.71 1280.35 C255.28 1280.35 253.86 1280.35 252.43 1280.35 C229.67 1280.35 206.91 1280.36 184.16 1280.37 C160.61 1280.38 137.06 1280.38 113.51 1280.37 C99.92 1280.37 86.33 1280.37 72.74 1280.38 C63.68 1280.39 54.61 1280.38 45.55 1280.38 C40.38 1280.37 35.21 1280.37 30.03 1280.38 C25.33 1280.39 20.64 1280.39 15.94 1280.38 C14.24 1280.37 12.54 1280.38 10.85 1280.38 C8.56 1280.39 6.27 1280.38 3.98 1280.37 C2.71 1280.37 1.44 1280.37 0.13 1280.37 C-2.81 1280.12 -2.81 1280.12 -4.81 1278.12 C-6.77 1277.45 -6.77 1277.45 -8.93 1277 C-10.21 1276.71 -11.49 1276.42 -12.81 1276.12 C-12.81 1275.46 -12.81 1274.8 -12.81 1274.12 C-13.55 1274.02 -14.29 1273.92 -15.06 1273.81 C-19.36 1272.74 -21.76 1270.18 -24.81 1267.12 C-25.76 1266.49 -26.7 1265.85 -27.68 1265.19 C-32.33 1261.41 -33.74 1255.55 -35.81 1250.12 C-36.79 1248.12 -37.79 1246.11 -38.81 1244.12 C-40.83 1238.05 -40.95 1231.95 -40.93 1225.61 C-40.93 1224.78 -40.93 1223.94 -40.93 1223.08 C-40.94 1220.27 -40.93 1217.46 -40.93 1214.65 C-40.93 1212.61 -40.93 1210.57 -40.93 1208.52 C-40.94 1202.89 -40.93 1197.26 -40.93 1191.62 C-40.93 1185.5 -40.93 1179.38 -40.93 1173.26 C-40.93 1162.53 -40.93 1151.79 -40.93 1141.06 C-40.92 1129.54 -40.92 1118.02 -40.92 1106.5 C-40.92 1105.78 -40.92 1105.05 -40.92 1104.3 C-40.92 1100.59 -40.92 1096.88 -40.92 1093.17 C-40.92 1066.33 -40.92 1039.48 -40.91 1012.63 C-40.91 986.04 -40.9 959.45 -40.9 932.86 C-40.9 932.03 -40.9 931.21 -40.9 930.36 C-40.9 922.82 -40.9 915.28 -40.9 907.74 C-40.9 888.99 -40.9 870.25 -40.9 851.5 C-40.9 850.65 -40.9 849.79 -40.9 848.91 C-40.89 807.38 -40.89 765.85 -40.88 724.32 C-40.88 709.91 -40.88 695.49 -40.88 681.08 C-40.88 680.18 -40.87 679.29 -40.87 678.37 C-40.87 636.82 -40.86 595.27 -40.86 553.72 C-40.86 551.02 -40.86 548.32 -40.86 545.62 C-40.86 527.75 -40.86 509.87 -40.86 492 C-40.85 456.43 -40.85 420.86 -40.85 385.3 C-40.85 383.6 -40.85 381.91 -40.85 380.21 C-40.84 303.95 -40.83 227.7 -40.82 151.44 C-40.82 150.72 -40.82 150.01 -40.82 149.27 C-40.82 113.56 -40.81 77.84 -40.81 42.12 C-40.48 42.12 -40.15 42.12 -39.81 42.12 C-39.64 41.04 -39.64 41.04 -39.47 39.93 C-38.58 34.48 -37.63 29.95 -34.81 25.12 C-34.34 24.1 -34.34 24.1 -33.87 23.06 C-31.41 18.57 -27.82 14.99 -24.31 11.31 C-23.55 10.52 -22.8 9.73 -22.03 8.92 C-19.81 7.12 -19.81 7.12 -15.81 7.12 C-15.54 6.49 -15.27 5.85 -14.99 5.19 C-13.81 3.12 -13.81 3.12 -10.81 2.12 C-9.61 1.96 -8.41 1.79 -7.18 1.62 C-3.78 1.12 -3.27 0.15 0 0 Z M59.19 100.12 C59.17 228.14 59.17 228.14 59.15 408.4 C59.15 409.94 59.15 411.47 59.15 413.01 C59.15 445.22 59.15 477.44 59.14 509.65 C59.14 525.84 59.14 542.02 59.14 558.2 C59.14 560.64 59.14 563.08 59.14 565.52 C59.14 603.13 59.13 640.73 59.12 678.34 C59.12 679.15 59.12 679.95 59.12 680.79 C59.12 693.83 59.12 706.87 59.12 719.92 C59.11 757.47 59.1 795.03 59.1 832.58 C59.1 833.35 59.1 834.12 59.1 834.92 C59.1 851.86 59.1 868.8 59.1 885.73 C59.1 892.55 59.1 899.36 59.1 906.18 C59.1 906.92 59.1 907.67 59.1 908.44 C59.1 932.5 59.09 956.56 59.09 980.62 C59.08 1004.84 59.08 1029.06 59.08 1053.28 C59.08 1068.33 59.08 1083.37 59.07 1098.41 C59.07 1107.99 59.07 1117.56 59.07 1127.14 C59.07 1132.61 59.07 1138.08 59.07 1143.55 C59.06 1148.52 59.07 1153.48 59.07 1158.45 C59.07 1160.24 59.07 1162.04 59.07 1163.83 C59.06 1166.25 59.07 1168.67 59.07 1171.09 C59.07 1171.8 59.06 1172.5 59.06 1173.23 C58.8 1176.46 58.8 1176.46 60.19 1179.12 C62.14 1179.23 64.09 1179.25 66.04 1179.26 C67.32 1179.26 68.61 1179.26 69.93 1179.27 C71.37 1179.27 72.82 1179.27 74.26 1179.27 C75.78 1179.27 77.31 1179.27 78.83 1179.28 C83.06 1179.28 87.28 1179.29 91.51 1179.29 C96.09 1179.29 100.68 1179.3 105.26 1179.31 C113.3 1179.32 121.35 1179.33 129.4 1179.33 C141.36 1179.34 153.32 1179.36 165.29 1179.38 C186.65 1179.41 208.01 1179.43 229.37 1179.45 C248.06 1179.47 266.75 1179.49 285.45 1179.51 C287.3 1179.51 287.3 1179.51 289.2 1179.52 C294.22 1179.52 299.25 1179.53 304.27 1179.53 C339.35 1179.57 374.44 1179.61 409.52 1179.65 C410.18 1179.65 410.85 1179.65 411.53 1179.65 C422.27 1179.66 433.02 1179.67 443.77 1179.68 C486.39 1179.73 529.02 1179.78 571.64 1179.83 C582.38 1179.84 593.12 1179.85 603.86 1179.87 C604.86 1179.87 604.86 1179.87 605.87 1179.87 C641.54 1179.91 677.22 1179.95 712.89 1179.99 C717.91 1180 722.92 1180 727.94 1180.01 C729.79 1180.01 729.79 1180.01 731.68 1180.01 C750.37 1180.03 769.05 1180.05 787.74 1180.08 C808.98 1180.1 830.21 1180.13 851.45 1180.14 C863.35 1180.15 875.25 1180.17 887.15 1180.18 C895.08 1180.2 903.01 1180.2 910.95 1180.21 C915.48 1180.21 920.01 1180.21 924.54 1180.22 C928.65 1180.23 932.76 1180.23 936.87 1180.23 C938.36 1180.23 939.85 1180.24 941.34 1180.24 C943.34 1180.25 945.34 1180.25 947.34 1180.24 C948.46 1180.24 949.57 1180.25 950.72 1180.25 C953.14 1180.4 953.14 1180.4 954.19 1179.12 C954.29 1176.77 954.33 1174.45 954.32 1172.09 C954.32 1170.97 954.32 1170.97 954.32 1169.82 C954.33 1167.27 954.33 1164.72 954.32 1162.17 C954.32 1160.33 954.33 1158.49 954.33 1156.65 C954.33 1151.55 954.33 1146.45 954.33 1141.35 C954.33 1135.82 954.33 1130.29 954.33 1124.75 C954.34 1115.04 954.34 1105.33 954.34 1095.62 C954.34 1081.86 954.34 1068.09 954.35 1054.32 C954.36 1026.36 954.36 998.4 954.36 970.44 C954.36 967.43 954.36 964.42 954.36 961.41 C954.36 960.66 954.36 959.91 954.36 959.14 C954.36 942.6 954.36 926.06 954.37 909.52 C954.37 902.71 954.37 895.9 954.37 889.09 C954.37 888.34 954.37 887.59 954.37 886.82 C954.38 843.71 954.38 800.6 954.38 757.48 C954.38 755.87 954.38 754.26 954.38 752.64 C954.38 745.35 954.38 738.07 954.38 730.78 C954.38 727.53 954.38 724.28 954.38 721.03 C954.38 719.4 954.38 717.77 954.38 716.15 C954.38 664.7 954.39 613.24 954.4 561.79 C954.4 548.83 954.41 535.86 954.41 522.9 C954.41 522.1 954.41 521.3 954.41 520.48 C954.42 495.89 954.42 471.3 954.42 446.71 C954.42 445.94 954.42 445.17 954.42 444.38 C954.42 427.44 954.42 410.5 954.42 393.57 C954.42 387.51 954.42 381.45 954.42 375.39 C954.42 373.88 954.42 372.38 954.42 370.87 C954.42 346.81 954.43 322.76 954.44 298.71 C954.44 274.49 954.45 250.27 954.44 226.06 C954.44 211.02 954.44 195.99 954.45 180.95 C954.45 171.37 954.45 161.8 954.45 152.22 C954.44 146.75 954.44 141.28 954.45 135.82 C954.46 130.85 954.45 125.89 954.44 120.92 C954.44 119.13 954.44 117.33 954.45 115.54 C954.46 113.12 954.45 110.7 954.44 108.28 C954.45 107.58 954.45 106.87 954.46 106.15 C954.53 102.19 954.53 102.19 952.19 99.12 C949.48 98.82 949.48 98.82 946.23 98.88 C944.95 98.87 943.67 98.87 942.35 98.86 C940.91 98.87 939.48 98.87 938.04 98.88 C936.52 98.87 935 98.87 933.47 98.87 C929.26 98.86 925.05 98.87 920.83 98.87 C916.26 98.88 911.69 98.87 907.11 98.87 C899.09 98.86 891.07 98.87 883.04 98.87 C871.11 98.88 859.18 98.88 847.24 98.88 C827.17 98.87 807.1 98.87 787.03 98.88 C767.15 98.89 747.27 98.9 727.39 98.9 C726.15 98.9 724.92 98.9 723.65 98.9 C718.63 98.9 713.62 98.9 708.61 98.9 C662.23 98.89 615.84 98.9 569.46 98.92 C526.94 98.93 484.43 98.94 441.91 98.94 C440.57 98.94 439.22 98.94 437.88 98.94 C435.19 98.94 432.51 98.94 429.83 98.94 C423.81 98.94 417.79 98.94 411.77 98.94 C409.77 98.94 407.77 98.94 405.77 98.94 C370.85 98.94 335.93 98.94 301.01 98.95 C299.77 98.95 298.53 98.95 297.25 98.95 C292.25 98.95 287.26 98.95 282.27 98.95 C264.87 98.96 247.46 98.96 230.06 98.96 C207.64 98.96 185.22 98.96 162.8 98.97 C150.94 98.98 139.07 98.98 127.2 98.98 C119.29 98.98 111.37 98.98 103.46 98.99 C98.94 98.99 94.42 98.99 89.9 98.99 C85.8 98.99 81.7 98.99 77.6 98.99 C76.11 99 74.63 98.99 73.15 98.99 C71.15 98.99 69.15 98.99 67.15 99 C66.04 99 64.93 99 63.79 99 C61.21 98.95 61.21 98.95 59.19 100.12 Z " fill="#000005" transform="translate(132.80654757469893,-0.12467116490006447)"/>
<path d="M0 0 C1.05 -0 1.05 -0 2.12 -0 C4.48 -0.01 6.85 -0 9.22 -0 C10.93 -0 12.63 -0 14.33 -0.01 C19.04 -0.01 23.74 -0.01 28.45 -0 C33.51 -0 38.58 -0.01 43.64 -0.01 C53.57 -0.01 63.5 -0.01 73.44 -0.01 C81.5 -0.01 89.57 -0.01 97.64 -0.01 C98.78 -0.01 99.93 -0.01 101.11 -0.01 C103.44 -0.01 105.76 -0.01 108.09 -0.01 C129.94 -0.01 151.79 -0.01 173.64 -0 C192.41 0 211.19 0 229.96 -0 C251.73 -0.01 273.5 -0.01 295.27 -0.01 C297.58 -0.01 299.9 -0.01 302.22 -0.01 C303.36 -0.01 304.5 -0.01 305.68 -0.01 C313.74 -0.01 321.81 -0.01 329.87 -0.01 C339.69 -0.01 349.51 -0.01 359.32 -0.01 C364.34 -0 369.35 -0 374.37 -0.01 C378.95 -0.01 383.53 -0.01 388.12 -0 C389.78 -0 391.45 -0 393.11 -0 C395.36 -0.01 397.61 -0 399.86 0 C401.74 0 401.74 0 403.66 0 C406.43 0.13 406.43 0.13 407.43 1.13 C407.53 4.23 407.56 7.31 407.54 10.42 C407.54 11.39 407.54 12.37 407.54 13.38 C407.54 16.62 407.54 19.86 407.53 23.1 C407.53 25.34 407.52 27.58 407.52 29.82 C407.52 35.73 407.51 41.64 407.5 47.55 C407.49 53.58 407.48 59.6 407.48 65.63 C407.47 77.46 407.45 89.29 407.43 101.13 C354.85 101.19 302.27 101.25 249.69 101.28 C243.49 101.28 237.29 101.29 231.09 101.29 C229.24 101.29 229.24 101.29 227.35 101.29 C207.33 101.31 187.31 101.33 167.3 101.36 C146.78 101.39 126.25 101.4 105.73 101.41 C93.05 101.41 80.38 101.43 67.71 101.45 C59.03 101.47 50.35 101.47 41.67 101.47 C36.65 101.46 31.64 101.47 26.62 101.48 C22.04 101.5 17.46 101.5 12.87 101.49 C11.21 101.49 9.54 101.49 7.88 101.5 C5.63 101.51 3.38 101.51 1.13 101.49 C-0.13 101.5 -1.38 101.5 -2.67 101.5 C-4.11 101.31 -4.11 101.31 -5.57 101.13 C-7.6 98.08 -7.82 97.51 -7.82 94.09 C-7.82 93.27 -7.83 92.45 -7.83 91.61 C-7.82 90.71 -7.82 89.82 -7.81 88.9 C-7.82 87.95 -7.82 87.01 -7.82 86.03 C-7.82 82.91 -7.81 79.78 -7.8 76.65 C-7.8 74.48 -7.8 72.31 -7.8 70.15 C-7.8 65.6 -7.79 61.06 -7.78 56.51 C-7.76 50.67 -7.76 44.83 -7.76 38.99 C-7.76 34.52 -7.75 30.04 -7.74 25.57 C-7.74 23.41 -7.74 21.26 -7.74 19.1 C-7.73 16.1 -7.73 13.1 -7.72 10.1 C-7.72 9.2 -7.72 8.3 -7.72 7.37 C-7.68 -0.09 -7.34 0 0 0 Z " fill="#000005" transform="translate(554.5702285766602,826.8741588592529)"/>
<path d="M0 0 C52.72 -0.02 105.45 -0.04 158.17 -0.05 C164.39 -0.05 170.61 -0.05 176.82 -0.05 C178.68 -0.06 178.68 -0.06 180.58 -0.06 C200.65 -0.06 220.72 -0.07 240.79 -0.08 C261.37 -0.09 281.95 -0.09 302.53 -0.09 C315.24 -0.1 327.94 -0.1 340.65 -0.11 C349.36 -0.11 358.06 -0.11 366.76 -0.11 C371.79 -0.11 376.82 -0.11 381.85 -0.12 C386.44 -0.12 391.04 -0.12 395.64 -0.12 C397.31 -0.12 398.98 -0.12 400.65 -0.12 C402.9 -0.13 405.16 -0.13 407.41 -0.12 C408.67 -0.12 409.93 -0.12 411.22 -0.12 C414 0 414 0 415 1 C415 33.67 415 66.34 415 100 C278.38 100 141.76 100 1 100 C0.1 97.29 -0.12 95.74 -0.12 92.96 C-0.12 92.14 -0.12 91.32 -0.12 90.47 C-0.12 89.13 -0.12 89.13 -0.11 87.76 C-0.11 86.81 -0.11 85.86 -0.11 84.89 C-0.11 81.75 -0.11 78.62 -0.1 75.49 C-0.1 73.32 -0.09 71.15 -0.09 68.98 C-0.09 63.26 -0.08 57.54 -0.07 51.83 C-0.06 46 -0.05 40.17 -0.05 34.33 C-0.04 22.89 -0.02 11.44 0 0 Z " fill="#000005" transform="translate(547,587)"/>
<path d="M0 0 C52.72 -0.02 105.45 -0.04 158.17 -0.05 C164.39 -0.05 170.61 -0.05 176.82 -0.05 C178.68 -0.06 178.68 -0.06 180.58 -0.06 C200.65 -0.06 220.72 -0.07 240.79 -0.08 C261.37 -0.09 281.95 -0.09 302.53 -0.09 C315.24 -0.1 327.94 -0.1 340.65 -0.11 C349.36 -0.11 358.06 -0.11 366.76 -0.11 C371.79 -0.11 376.82 -0.11 381.85 -0.12 C386.44 -0.12 391.04 -0.12 395.64 -0.12 C397.31 -0.12 398.98 -0.12 400.65 -0.12 C402.9 -0.13 405.16 -0.13 407.41 -0.12 C408.67 -0.12 409.93 -0.12 411.22 -0.12 C414 0 414 0 415 1 C415 33.67 415 66.34 415 100 C278.38 100 141.76 100 1 100 C0.1 97.29 -0.12 95.74 -0.12 92.96 C-0.12 92.14 -0.12 91.32 -0.12 90.47 C-0.12 89.13 -0.12 89.13 -0.11 87.76 C-0.11 86.81 -0.11 85.86 -0.11 84.89 C-0.11 81.75 -0.11 78.62 -0.1 75.49 C-0.1 73.32 -0.09 71.15 -0.09 68.98 C-0.09 63.26 -0.08 57.54 -0.07 51.83 C-0.06 46 -0.05 40.17 -0.05 34.33 C-0.04 22.89 -0.02 11.44 0 0 Z " fill="#000005" transform="translate(547,352)"/>
<path d="M0 0 C23.58 -0.02 47.16 -0.04 70.75 -0.05 C81.7 -0.06 92.64 -0.06 103.59 -0.08 C113.13 -0.09 122.67 -0.09 132.21 -0.09 C137.27 -0.1 142.32 -0.1 147.37 -0.11 C152.13 -0.11 156.88 -0.11 161.63 -0.11 C163.38 -0.11 165.13 -0.12 166.88 -0.12 C169.25 -0.12 171.63 -0.12 174.01 -0.12 C174.71 -0.12 175.41 -0.13 176.13 -0.13 C180.89 -0.11 180.89 -0.11 182 1 C182.1 3.34 182.13 5.65 182.12 7.99 C182.12 9.1 182.12 9.1 182.12 10.23 C182.12 12.73 182.12 15.23 182.11 17.73 C182.11 19.54 182.11 21.35 182.11 23.17 C182.11 28.04 182.11 32.91 182.1 37.78 C182.1 42.34 182.1 46.91 182.09 51.47 C182.09 64.83 182.08 78.2 182.06 91.56 C182.04 121.41 182.02 151.25 182 182 C122.27 182 62.54 182 1 182 C-1.16 177.67 -1.25 175.61 -1.25 170.85 C-1.25 169.77 -1.25 169.77 -1.25 168.67 C-1.26 166.25 -1.25 163.84 -1.24 161.42 C-1.24 159.69 -1.25 157.96 -1.25 156.23 C-1.25 151.53 -1.25 146.82 -1.24 142.12 C-1.23 137.2 -1.23 132.29 -1.23 127.37 C-1.23 119.12 -1.22 110.87 -1.21 102.61 C-1.19 93.06 -1.18 83.51 -1.19 73.96 C-1.19 64.78 -1.18 55.6 -1.17 46.42 C-1.17 42.51 -1.17 38.6 -1.17 34.68 C-1.17 30.08 -1.16 25.48 -1.15 20.88 C-1.15 19.19 -1.15 17.49 -1.15 15.8 C-1.15 13.5 -1.14 11.2 -1.13 8.9 C-1.13 7.6 -1.13 6.31 -1.13 4.98 C-1 2 -1 2 0 0 Z " fill="#000005" transform="translate(330,787)"/>
<path d="M0 0 C23.58 -0.02 47.16 -0.04 70.75 -0.05 C81.7 -0.06 92.64 -0.06 103.59 -0.08 C113.13 -0.09 122.67 -0.09 132.21 -0.09 C137.27 -0.1 142.32 -0.1 147.37 -0.11 C152.13 -0.11 156.88 -0.11 161.63 -0.11 C163.38 -0.11 165.13 -0.12 166.88 -0.12 C169.25 -0.12 171.63 -0.12 174.01 -0.12 C174.71 -0.12 175.41 -0.13 176.13 -0.13 C180.89 -0.11 180.89 -0.11 182 1 C182.1 3.33 182.13 5.63 182.12 7.95 C182.12 9.06 182.12 9.06 182.12 10.18 C182.12 12.67 182.12 15.15 182.11 17.64 C182.11 19.41 182.11 21.18 182.11 22.96 C182.11 27.79 182.11 32.62 182.1 37.45 C182.1 42.49 182.09 47.53 182.09 52.58 C182.09 62.13 182.08 71.69 182.07 81.24 C182.06 92.12 182.06 102.99 182.05 113.87 C182.04 136.24 182.02 158.62 182 181 C179.03 182.48 176.37 182.13 173.06 182.13 C171.98 182.13 171.98 182.13 170.87 182.13 C168.44 182.14 166.01 182.13 163.57 182.13 C161.83 182.13 160.09 182.13 158.35 182.13 C153.62 182.14 148.89 182.14 144.15 182.13 C139.21 182.13 134.26 182.13 129.32 182.14 C121.01 182.14 112.7 182.14 104.39 182.13 C94.78 182.12 85.16 182.13 75.55 182.13 C67.31 182.14 59.06 182.14 50.82 182.13 C45.89 182.13 40.96 182.13 36.04 182.14 C31.4 182.14 26.77 182.14 22.14 182.13 C20.43 182.13 18.73 182.13 17.03 182.13 C14.71 182.14 12.39 182.13 10.07 182.13 C8.77 182.13 7.47 182.13 6.13 182.13 C3 182 3 182 0 181 C-1.18 177.47 -1.13 174.7 -1.13 170.97 C-1.13 170.25 -1.13 169.53 -1.13 168.79 C-1.14 166.37 -1.13 163.95 -1.13 161.53 C-1.13 159.8 -1.13 158.07 -1.13 156.34 C-1.14 151.63 -1.14 146.93 -1.13 142.22 C-1.13 137.3 -1.13 132.39 -1.14 127.47 C-1.14 119.21 -1.14 110.95 -1.13 102.69 C-1.12 93.13 -1.13 83.57 -1.13 74.01 C-1.14 65.81 -1.14 57.61 -1.13 49.42 C-1.13 44.52 -1.13 39.61 -1.14 34.71 C-1.14 30.11 -1.14 25.5 -1.13 20.9 C-1.13 19.2 -1.13 17.51 -1.13 15.82 C-1.14 13.51 -1.13 11.21 -1.13 8.9 C-1.13 7.61 -1.13 6.32 -1.13 4.99 C-1 2 -1 2 0 0 Z M139.69 41.81 C137.8 43.8 137.8 43.8 138 46 C137.34 46 136.68 46 136 46 C134.33 47.33 134.33 47.33 133 49 C133 49.66 133 50.32 133 51 C132.34 51 131.68 51 131 51 C129.33 52.33 129.33 52.33 128 54 C128 54.66 128 55.32 128 56 C127.34 56 126.68 56 126 56 C124.33 57.33 124.33 57.33 123 59 C123 59.66 123 60.32 123 61 C122.34 61 121.68 61 121 61 C119.33 62.33 119.33 62.33 118 64 C118 64.66 118 65.32 118 66 C117.36 66.27 116.72 66.54 116.06 66.81 C113.67 67.89 113.67 67.89 113 71 C111.67 71.67 110.33 72.33 109 73 C108.67 73.99 108.34 74.98 108 76 C106.67 76.67 105.33 77.33 104 78 C103.67 78.99 103.34 79.98 103 81 C101.67 81.67 100.33 82.33 99 83 C98.67 83.99 98.34 84.98 98 86 C96.67 86.67 95.33 87.33 94 88 C93.67 88.99 93.34 89.98 93 91 C91.67 91.67 90.33 92.33 89 93 C88.67 93.99 88.34 94.98 88 96 C86 97 86 97 84 98 C83.67 98.99 83.34 99.98 83 101 C79.64 103.16 75.97 104 72 104 C72 103.34 72 102.68 72 102 C70.68 101.67 69.36 101.34 68 101 C68 100.01 68 99.02 68 98 C67.34 98 66.68 98 66 98 C66 97.34 66 96.68 66 96 C65.01 96 64.02 96 63 96 C63 95.01 63 94.02 63 93 C62.34 93 61.68 93 61 93 C61 92.34 61 91.68 61 91 C60.01 91 59.02 91 58 91 C58 90.01 58 89.02 58 88 C57.01 88 56.02 88 55 88 C55 87.34 55 86.68 55 86 C54.34 86 53.68 86 53 86 C53 85.01 53 84.02 53 83 C52.34 83 51.68 83 51 83 C51 82.34 51 81.68 51 81 C50.01 81 49.02 81 48 81 C48 80.01 48 79.02 48 78 C47.34 78 46.68 78 46 78 C46 77.34 46 76.68 46 76 C45.01 76 44.02 76 43 76 C43 75.01 43 74.02 43 73 C38.76 71.99 38.76 71.99 34.62 72.94 C33.82 73.46 33.82 73.46 33 74 C33 74.66 33 75.32 33 76 C32.34 76 31.68 76 31 76 C29.33 77.33 29.33 77.33 28 79 C28 79.66 28 80.32 28 81 C27.34 81 26.68 81 26 81 C22.86 84.08 22.86 84.08 22 88.19 C23.29 90.52 24.64 90.85 27 92 C27.68 93.33 28.35 94.66 29 96 C29.99 96.33 30.98 96.66 32 97 C33.06 98.88 33.06 98.88 34 101 C34.66 101.99 35.32 102.98 36 104 C36.66 104 37.32 104 38 104 C38 104.66 38 105.32 38 106 C38.66 106 39.32 106 40 106 C40.33 106.99 40.66 107.98 41 109 C42.63 110.61 42.63 110.61 44.62 112.19 C48.36 115.33 51.47 118.72 54.55 122.5 C55.03 122.99 55.51 123.49 56 124 C56.66 124 57.32 124 58 124 C58 124.66 58 125.32 58 126 C59.32 126.33 60.64 126.66 62 127 C62.09 127.84 62.09 127.84 62.17 128.7 C63.38 132.05 65.51 133.51 68.25 135.75 C69.2 136.55 70.16 137.35 71.14 138.17 C74.29 140.18 75.37 140.43 79 140 C80.95 138.78 80.95 138.78 82.64 136.96 C83.32 136.29 84 135.62 84.7 134.92 C85.79 133.8 85.79 133.8 86.91 132.66 C87.69 131.88 88.47 131.1 89.28 130.29 C91.86 127.71 94.42 125.1 96.99 122.5 C98.77 120.71 100.56 118.91 102.35 117.12 C106.57 112.88 110.78 108.63 114.99 104.37 C119.78 99.52 124.59 94.69 129.39 89.86 C139.28 79.92 149.14 69.97 159 60 C158.67 59.01 158.34 58.02 158 57 C158.99 56.5 158.99 56.5 160 56 C157.82 50.8 155.47 48.24 151 45 C150.34 45 149.68 45 149 45 C148.77 44.36 148.55 43.72 148.31 43.06 C147.14 40.8 147.14 40.8 144.62 40 C141.85 39.73 141.85 39.73 139.69 41.81 Z M137 41 C138 43 138 43 138 43 Z M34 70 C35 72 35 72 35 72 Z M24 78 C23.67 78.66 23.34 79.32 23 80 C23.66 80 24.32 80 25 80 C24.67 79.34 24.34 78.68 24 78 Z M77 100 C78 102 78 102 78 102 Z " fill="#000005" transform="translate(330,547)"/>
<path d="M0 0 C23.58 -0.02 47.16 -0.04 70.75 -0.05 C81.7 -0.06 92.64 -0.06 103.59 -0.08 C113.13 -0.09 122.67 -0.09 132.21 -0.09 C137.27 -0.1 142.32 -0.1 147.37 -0.11 C152.13 -0.11 156.88 -0.11 161.63 -0.11 C163.38 -0.11 165.13 -0.12 166.88 -0.12 C169.25 -0.12 171.63 -0.12 174.01 -0.12 C174.71 -0.12 175.41 -0.13 176.13 -0.13 C180.89 -0.11 180.89 -0.11 182 1 C182.1 3.33 182.13 5.63 182.12 7.95 C182.12 9.06 182.12 9.06 182.12 10.18 C182.12 12.67 182.12 15.15 182.11 17.64 C182.11 19.41 182.11 21.18 182.11 22.96 C182.11 27.79 182.11 32.62 182.1 37.45 C182.1 42.49 182.09 47.53 182.09 52.58 C182.09 62.13 182.08 71.69 182.07 81.24 C182.06 92.12 182.06 102.99 182.05 113.87 C182.04 136.24 182.02 158.62 182 181 C178.47 182.18 175.7 182.13 171.98 182.13 C171.26 182.13 170.54 182.13 169.8 182.13 C167.38 182.14 164.97 182.13 162.55 182.13 C160.82 182.13 159.09 182.13 157.36 182.13 C152.66 182.14 147.96 182.14 143.26 182.13 C138.34 182.13 133.42 182.13 128.51 182.14 C120.25 182.14 112 182.14 103.74 182.13 C94.19 182.12 84.64 182.13 75.09 182.13 C66.9 182.14 58.7 182.14 50.51 182.13 C45.61 182.13 40.72 182.13 35.82 182.14 C31.22 182.14 26.61 182.14 22.01 182.13 C20.32 182.13 18.63 182.13 16.94 182.13 C14.63 182.14 12.33 182.13 10.02 182.13 C8.73 182.13 7.44 182.13 6.11 182.13 C3 182 3 182 0 181 C-1.18 177.47 -1.13 174.7 -1.13 170.97 C-1.13 170.25 -1.13 169.53 -1.13 168.79 C-1.14 166.37 -1.13 163.95 -1.13 161.53 C-1.13 159.8 -1.13 158.07 -1.13 156.34 C-1.14 151.63 -1.14 146.93 -1.13 142.22 C-1.13 137.3 -1.13 132.39 -1.14 127.47 C-1.14 119.21 -1.14 110.95 -1.13 102.69 C-1.12 93.13 -1.13 83.57 -1.13 74.01 C-1.14 65.81 -1.14 57.61 -1.13 49.42 C-1.13 44.52 -1.13 39.61 -1.14 34.71 C-1.14 30.11 -1.14 25.5 -1.13 20.9 C-1.13 19.2 -1.13 17.51 -1.13 15.82 C-1.14 13.51 -1.13 11.21 -1.13 8.9 C-1.13 7.61 -1.13 6.32 -1.13 4.99 C-1 2 -1 2 0 0 Z M137 40 C137.33 40.99 137.66 41.98 138 43 C138 42.34 138 41.68 138 41 C138.66 40.67 139.32 40.34 140 40 C139.01 40 138.02 40 137 40 Z M142 40 C141.67 40.99 141.34 41.98 141 43 C140.01 43.33 139.02 43.66 138 44 C138 44.66 138 45.32 138 46 C137.36 46.27 136.72 46.54 136.06 46.81 C133.67 47.89 133.67 47.89 133 51 C131.67 51.67 130.33 52.33 129 53 C128.67 53.99 128.34 54.98 128 56 C126.67 56.67 125.33 57.33 124 58 C123.5 59.49 123.5 59.49 123 61 C121.67 61.67 120.33 62.33 119 63 C118.5 64.49 118.5 64.49 118 66 C116.67 66.67 115.33 67.33 114 68 C113.5 69.49 113.5 69.49 113 71 C111.67 71.67 110.33 72.33 109 73 C108.67 73.99 108.34 74.98 108 76 C106.67 76.67 105.33 77.33 104 78 C103.67 78.99 103.34 79.98 103 81 C101.67 81.67 100.33 82.33 99 83 C98.67 83.99 98.34 84.98 98 86 C96.67 86.67 95.33 87.33 94 88 C93.67 88.99 93.34 89.98 93 91 C91.67 91.67 90.33 92.33 89 93 C88.67 93.99 88.34 94.98 88 96 C86 97 86 97 84 98 C83.67 98.99 83.34 99.98 83 101 C79.64 103.16 75.97 104 72 104 C71.67 103.01 71.34 102.02 71 101 C70.01 101 69.02 101 68 101 C68 100.01 68 99.02 68 98 C67.34 98 66.68 98 66 98 C66 97.34 66 96.68 66 96 C65.01 96 64.02 96 63 96 C63 95.01 63 94.02 63 93 C62.34 93 61.68 93 61 93 C61 92.34 61 91.68 61 91 C60.01 91 59.02 91 58 91 C58 90.01 58 89.02 58 88 C57.34 88 56.68 88 56 88 C56 87.34 56 86.68 56 86 C55.01 86 54.02 86 53 86 C53 85.01 53 84.02 53 83 C52.34 83 51.68 83 51 83 C51 82.34 51 81.68 51 81 C50.18 80.5 49.35 80.01 48.5 79.5 C47.68 79 46.85 78.51 46 78 C46 77.34 46 76.68 46 76 C45.01 76 44.02 76 43 76 C43 75.01 43 74.02 43 73 C38.76 71.99 38.76 71.99 34.62 72.94 C33.82 73.46 33.82 73.46 33 74 C33 74.66 33 75.32 33 76 C32.34 76 31.68 76 31 76 C29.33 77.33 29.33 77.33 28 79 C28 79.66 28 80.32 28 81 C27.34 81 26.68 81 26 81 C22.86 84.08 22.86 84.08 22 88.19 C22.87 90.17 22.87 90.17 25 91 C27 92 27 92 27.75 94.12 C27.83 94.74 27.92 95.36 28 96 C28.62 96.08 29.24 96.16 29.88 96.25 C32.72 97.25 32.69 98.31 34 101 C35.86 103.15 37.8 105.2 40 107 C40.66 107 41.32 107 42 107 C42.25 107.56 42.5 108.11 42.75 108.69 C44.23 111.42 45.93 113.68 48 116 C48.66 116 49.32 116 50 116 C50.33 116.99 50.66 117.98 51 119 C51.66 119 52.32 119 53 119 C53 119.66 53 120.32 53 121 C54.48 122.58 54.48 122.58 56.38 124.12 C57 124.66 57.63 125.2 58.27 125.76 C59.92 127.19 59.92 127.19 62 127 C62.33 128.32 62.66 129.64 63 131 C63.66 131 64.32 131 65 131 C65.33 131.99 65.66 132.98 66 134 C67.68 135.67 67.68 135.67 69.75 137.19 C70.43 137.72 71.1 138.25 71.8 138.79 C74.49 140.27 75.96 140.31 79 140 C80.95 138.78 80.95 138.78 82.64 136.96 C83.32 136.29 84 135.62 84.7 134.92 C85.79 133.8 85.79 133.8 86.91 132.66 C87.69 131.88 88.47 131.1 89.28 130.29 C91.86 127.71 94.42 125.1 96.99 122.5 C98.77 120.71 100.56 118.91 102.35 117.12 C106.57 112.88 110.78 108.63 114.99 104.37 C119.78 99.52 124.59 94.69 129.39 89.86 C139.28 79.92 149.14 69.97 159 60 C158.67 59.01 158.34 58.02 158 57 C158.99 56.5 158.99 56.5 160 56 C158.02 50.81 155.41 48.49 150.94 45.49 C149 44 149 44 147.5 41.82 C147 41.22 146.51 40.62 146 40 C144.68 40 143.36 40 142 40 Z M34 70 C35 72 35 72 35 72 Z M77 100 C78 102 78 102 78 102 Z " fill="#000005" transform="translate(330,312)"/>
<path d="M0 0 C0.66 0.33 1.32 0.66 2 1 C1.01 1.66 0.02 2.32 -1 3 C-0.67 2.01 -0.34 1.02 0 0 Z " fill="#000005" transform="translate(409,683)"/>
<path d="M0 0 C0.66 0.33 1.32 0.66 2 1 C1.01 1.66 0.02 2.32 -1 3 C-0.67 2.01 -0.34 1.02 0 0 Z " fill="#000005" transform="translate(464,628)"/>
<path d="M0 0 C0.66 0.33 1.32 0.66 2 1 C1.01 1.66 0.02 2.32 -1 3 C-0.67 2.01 -0.34 1.02 0 0 Z " fill="#000005" transform="translate(409,448)"/>
<path d="M0 0 C0.66 0.33 1.32 0.66 2 1 C1.01 1.66 0.02 2.32 -1 3 C-0.67 2.01 -0.34 1.02 0 0 Z " fill="#000005" transform="translate(414,443)"/>
<path d="M0 0 C0.66 0.33 1.32 0.66 2 1 C1.01 1.66 0.02 2.32 -1 3 C-0.67 2.01 -0.34 1.02 0 0 Z " fill="#000005" transform="translate(419,438)"/>
<path d="M0 0 C0.66 0.33 1.32 0.66 2 1 C1.01 1.66 0.02 2.32 -1 3 C-0.67 2.01 -0.34 1.02 0 0 Z " fill="#000005" transform="translate(424,433)"/>
<path d="M0 0 C0.66 0.33 1.32 0.66 2 1 C1.01 1.66 0.02 2.32 -1 3 C-0.67 2.01 -0.34 1.02 0 0 Z " fill="#000005" transform="translate(429,428)"/>
<path d="M0 0 C0.66 0.33 1.32 0.66 2 1 C1.01 1.66 0.02 2.32 -1 3 C-0.67 2.01 -0.34 1.02 0 0 Z " fill="#000005" transform="translate(434,423)"/>
<path d="M0 0 C0.66 0.33 1.32 0.66 2 1 C1.01 1.66 0.02 2.32 -1 3 C-0.67 2.01 -0.34 1.02 0 0 Z " fill="#000005" transform="translate(439,418)"/>
<path d="M0 0 C0.66 0.33 1.32 0.66 2 1 C1.01 1.66 0.02 2.32 -1 3 C-0.67 2.01 -0.34 1.02 0 0 Z " fill="#000005" transform="translate(444,413)"/>
<path d="M0 0 C0.66 0.33 1.32 0.66 2 1 C1.01 1.66 0.02 2.32 -1 3 C-0.67 2.01 -0.34 1.02 0 0 Z " fill="#000005" transform="translate(449,408)"/>
<path d="M0 0 C0.66 0.33 1.32 0.66 2 1 C1.01 1.66 0.02 2.32 -1 3 C-0.67 2.01 -0.34 1.02 0 0 Z " fill="#000005" transform="translate(454,403)"/>
<path d="M0 0 C0.66 0.33 1.32 0.66 2 1 C1.01 1.66 0.02 2.32 -1 3 C-0.67 2.01 -0.34 1.02 0 0 Z " fill="#000005" transform="translate(459,398)"/>
<path d="M0 0 C0.66 0.33 1.32 0.66 2 1 C1.01 1.66 0.02 2.32 -1 3 C-0.67 2.01 -0.34 1.02 0 0 Z " fill="#000005" transform="translate(464,393)"/>
<path d="M0 0 C0.66 0.33 1.32 0.66 2 1 C1.01 1.66 0.02 2.32 -1 3 C-0.67 2.01 -0.34 1.02 0 0 Z " fill="#000005" transform="translate(469,388)"/>
<path d="M0 0 C0.66 0.33 1.32 0.66 2 1 C1.01 1.66 0.02 2.32 -1 3 C-0.67 2.01 -0.34 1.02 0 0 Z " fill="#000005" transform="translate(474,383)"/>
<path d="M0 0 C0.66 0.33 1.32 0.66 2 1 C1.01 1.66 0.02 2.32 -1 3 C-0.67 2.01 -0.34 1.02 0 0 Z " fill="#000005" transform="translate(479,378)"/>
<path d="M0 0 C0.66 0.33 1.32 0.66 2 1 C1.01 1.66 0.02 2.32 -1 3 C-0.67 2.01 -0.34 1.02 0 0 Z " fill="#000005" transform="translate(484,373)"/>
<path d="M0 0 C0.99 0.5 0.99 0.5 2 1 C1.01 1.5 1.01 1.5 0 2 C0 1.34 0 0.68 0 0 Z " fill="#000005" transform="translate(461,631)"/>
<path d="M0 0 C0.99 0.5 0.99 0.5 2 1 C1.01 1.5 1.01 1.5 0 2 C0 1.34 0 0.68 0 0 Z " fill="#000005" transform="translate(481,611)"/>
<path d="" fill="#000005" transform="translate(0,0)"/>
<path d="" fill="#000005" transform="translate(0,0)"/>
<path d="" fill="#312F32" transform="translate(0,0)"/>
<path d="" fill="#312F32" transform="translate(0,0)"/>
<path d="" fill="#000005" transform="translate(0,0)"/>
<path d="" fill="#000005" transform="translate(0,0)"/>
<path d="" fill="#000005" transform="translate(0,0)"/>
<path d="" fill="#000005" transform="translate(0,0)"/>
<path d="" fill="#000005" transform="translate(0,0)"/>
<path d="" fill="#000005" transform="translate(0,0)"/>
<path d="" fill="#000005" transform="translate(0,0)"/>
<path d="" fill="#000005" transform="translate(0,0)"/>
<path d="" fill="#000005" transform="translate(0,0)"/>
<path d="" fill="#000005" transform="translate(0,0)"/>
<path d="" fill="#000005" transform="translate(0,0)"/>
<path d="" fill="#000005" transform="translate(0,0)"/>
<path d="" fill="#000005" transform="translate(0,0)"/>
<path d="" fill="#000005" transform="translate(0,0)"/>
<path d="" fill="#000005" transform="translate(0,0)"/>
<path d="" fill="#000005" transform="translate(0,0)"/>
<path d="" fill="#000005" transform="translate(0,0)"/>
<path d="" fill="#000005" transform="translate(0,0)"/>
<path d="" fill="#000005" transform="translate(0,0)"/>
<path d="" fill="#000005" transform="translate(0,0)"/>
<path d="" fill="#000005" transform="translate(0,0)"/>
<path d="" fill="#000005" transform="translate(0,0)"/>
<path d="" fill="#000005" transform="translate(0,0)"/>
<path d="" fill="#000005" transform="translate(0,0)"/>
<path d="" fill="#000005" transform="translate(0,0)"/>
<path d="" fill="#000005" transform="translate(0,0)"/>
<path d="" fill="#000005" transform="translate(0,0)"/>
<path d="" fill="#000005" transform="translate(0,0)"/>
<path d="" fill="#000005" transform="translate(0,0)"/>
<path d="" fill="#000005" transform="translate(0,0)"/>
<path d="" fill="#000005" transform="translate(0,0)"/>
<path d="" fill="#000005" transform="translate(0,0)"/>
<path d="" fill="#000005" transform="translate(0,0)"/>
<path d="" fill="#000005" transform="translate(0,0)"/>
<path d="" fill="#000005" transform="translate(0,0)"/>
<path d="" fill="#000005" transform="translate(0,0)"/>
<path d="" fill="#000005" transform="translate(0,0)"/>
<path d="" fill="#000005" transform="translate(0,0)"/>
<path d="" fill="#000005" transform="translate(0,0)"/>
<path d="" fill="#000005" transform="translate(0,0)"/>
<path d="" fill="#000005" transform="translate(0,0)"/>
<path d="" fill="#000005" transform="translate(0,0)"/>
<path d="" fill="#000005" transform="translate(0,0)"/>
<path d="" fill="#000005" transform="translate(0,0)"/>
<path d="" fill="#000005" transform="translate(0,0)"/>
<path d="" fill="#000005" transform="translate(0,0)"/>
<path d="" fill="#000005" transform="translate(0,0)"/>
<path d="" fill="#000005" transform="translate(0,0)"/>
<path d="" fill="#000005" transform="translate(0,0)"/>
<path d="" fill="#000005" transform="translate(0,0)"/>
<path d="" fill="#000005" transform="translate(0,0)"/>
<path d="" fill="#000005" transform="translate(0,0)"/>
<path d="" fill="#000005" transform="translate(0,0)"/>
<path d="" fill="#000005" transform="translate(0,0)"/>
<path d="" fill="#000005" transform="translate(0,0)"/>
<path d="" fill="#000005" transform="translate(0,0)"/>
<path d="" fill="#000005" transform="translate(0,0)"/>
<path d="" fill="#000005" transform="translate(0,0)"/>
<path d="" fill="#000005" transform="translate(0,0)"/>
<path d="" fill="#000005" transform="translate(0,0)"/>
<path d="" fill="#000005" transform="translate(0,0)"/>
<path d="" fill="#000005" transform="translate(0,0)"/>
<path d="" fill="#000005" transform="translate(0,0)"/>
<path d="" fill="#000005" transform="translate(0,0)"/>
<path d="" fill="#000005" transform="translate(0,0)"/>
<path d="" fill="#000005" transform="translate(0,0)"/>
<path d="" fill="#000005" transform="translate(0,0)"/>
<path d="" fill="#000005" transform="translate(0,0)"/>
<path d="" fill="#000005" transform="translate(0,0)"/>
<path d="" fill="#000005" transform="translate(0,0)"/>
<path d="" fill="#312F32" transform="translate(0,0)"/>
<path d="" fill="#312F32" transform="translate(0,0)"/>
<path d="" fill="#312F32" transform="translate(0,0)"/>
<path d="" fill="#312F32" transform="translate(0,0)"/>
<path d="" fill="#312F32" transform="translate(0,0)"/>
<path d="" fill="#312F32" transform="translate(0,0)"/>
<path d="" fill="#312F32" transform="translate(0,0)"/>
<path d="" fill="#312F32" transform="translate(0,0)"/>
<path d="" fill="#312F32" transform="translate(0,0)"/>
<path d="" fill="#312F32" transform="translate(0,0)"/>
<path d="" fill="#312F32" transform="translate(0,0)"/>
<path d="" fill="#312F32" transform="translate(0,0)"/>
<path d="" fill="#312F32" transform="translate(0,0)"/>
<path d="" fill="#312F32" transform="translate(0,0)"/>
<path d="" fill="#312F32" transform="translate(0,0)"/>
<path d="" fill="#312F32" transform="translate(0,0)"/>
<path d="" fill="#312F32" transform="translate(0,0)"/>
<path d="" fill="#312F32" transform="translate(0,0)"/>
<path d="" fill="#312F32" transform="translate(0,0)"/>
<path d="" fill="#312F32" transform="translate(0,0)"/>
<path d="" fill="#312F32" transform="translate(0,0)"/>
<path d="" fill="#312F32" transform="translate(0,0)"/>
<path d="" fill="#312F32" transform="translate(0,0)"/>
<path d="" fill="#312F32" transform="translate(0,0)"/>
<path d="" fill="#312F32" transform="translate(0,0)"/>
<path d="" fill="#312F32" transform="translate(0,0)"/>
<path d="" fill="#312F32" transform="translate(0,0)"/>
<path d="" fill="#312F32" transform="translate(0,0)"/>
<path d="" fill="#312F32" transform="translate(0,0)"/>
<path d="" fill="#312F32" transform="translate(0,0)"/>
<path d="" fill="#000005" transform="translate(0,0)"/>
<path d="" fill="#000005" transform="translate(0,0)"/>
<path d="" fill="#000005" transform="translate(0,0)"/>
<path d="" fill="#000005" transform="translate(0,0)"/>
<path d="" fill="#000005" transform="translate(0,0)"/>
<path d="" fill="#000005" transform="translate(0,0)"/>
<path d="" fill="#000005" transform="translate(0,0)"/>
</svg>
